<svg width="48" height="48" viewBox="0 0 48 48" fill="none" xmlns="http://www.w3.org/2000/svg">
<rect width="48" height="48" rx="24" fill="#8D8E62"/>
<path d="M12.67 35.43C12.33 35.59 11.94 35.65 11.5 35.61C11.08 35.59 10.66 35.47 10.24 35.25C9.82 35.05 9.45 34.78 9.13 34.44C8.99 34.28 8.9 34.12 8.86 33.96C8.82 33.82 8.84 33.62 8.92 33.36C9.02 33 9.15 32.82 9.31 32.82C9.53 32.82 9.78 33.01 10.06 33.39C10.62 33.89 11.17 34.03 11.71 33.81C12.27 33.59 12.86 33 13.48 32.04C13.6 31.74 13.79 31.31 14.05 30.75C14.31 30.19 14.58 29.59 14.86 28.95C15.16 28.31 15.43 27.72 15.67 27.18C15.91 26.62 16.07 26.22 16.15 25.98C16.15 25.98 16.15 25.95 16.15 25.89C16.17 25.81 16.22 25.73 16.3 25.65C16.32 25.57 16.37 25.41 16.45 25.17C16.53 24.93 16.61 24.65 16.69 24.33C16.77 24.11 16.88 23.78 17.02 23.34C17.18 22.9 17.34 22.44 17.5 21.96C17.68 21.48 17.83 21.08 17.95 20.76C18.05 20.34 18.17 19.89 18.31 19.41C18.47 18.91 18.6 18.53 18.7 18.27C18.78 18.11 18.9 17.79 19.06 17.31C19.22 16.81 19.4 16.27 19.6 15.69C19.84 14.91 20.07 14.19 20.29 13.53C20.51 12.85 20.68 12.3 20.8 11.88C20.94 11.44 20.99 11.19 20.95 11.13C20.95 11.13 20.77 11.16 20.41 11.22C20.07 11.28 19.69 11.35 19.27 11.43C18.93 11.57 18.59 11.62 18.25 11.58C17.93 11.52 17.78 11.45 17.8 11.37C17.8 11.29 17.8 11.25 17.8 11.25C17.8 11.23 17.8 11.22 17.8 11.22C17.74 11.26 17.66 11.25 17.56 11.19C17.46 11.11 17.37 11.01 17.29 10.89C17.21 10.75 17.17 10.63 17.17 10.53C17.17 10.37 17.37 10.23 17.77 10.11C18.17 9.97 18.68 9.86 19.3 9.78C19.7 9.72 20.09 9.67 20.47 9.63C20.87 9.57 21.2 9.52 21.46 9.48C21.54 9.42 21.68 9.42 21.88 9.48C22.1 9.54 22.32 9.62 22.54 9.72C22.78 9.82 22.95 9.93 23.05 10.05C23.17 10.21 23.24 10.38 23.26 10.56C23.3 10.74 23.28 10.99 23.2 11.31C23.12 11.63 22.97 12.09 22.75 12.69C22.55 13.27 22.26 14.07 21.88 15.09C21.44 16.33 21.05 17.46 20.71 18.48C20.37 19.48 20.06 20.31 19.78 20.97C19.72 21.19 19.61 21.51 19.45 21.93C19.31 22.35 19.17 22.78 19.03 23.22C18.89 23.64 18.78 23.99 18.7 24.27C18.54 24.65 18.39 25.06 18.25 25.5C18.11 25.94 18 26.29 17.92 26.55C17.92 26.71 17.88 26.89 17.8 27.09C17.72 27.29 17.63 27.44 17.53 27.54C17.53 27.54 17.46 27.72 17.32 28.08C17.18 28.42 17.01 28.83 16.81 29.31C16.65 29.71 16.47 30.15 16.27 30.63C16.09 31.13 15.92 31.51 15.76 31.77C15.66 32.01 15.54 32.23 15.4 32.43C15.26 32.65 15.19 32.8 15.19 32.88C15.19 32.88 15.18 32.91 15.16 32.97C15.16 33.03 15.12 33.06 15.04 33.06C15.04 33.06 15.01 33.08 14.95 33.12C14.89 33.18 14.86 33.26 14.86 33.36C14.82 33.48 14.71 33.64 14.53 33.84C14.37 34.04 14.17 34.25 13.93 34.47C13.71 34.69 13.48 34.88 13.24 35.04C13.02 35.22 12.83 35.35 12.67 35.43ZM22.7929 29.04C22.6329 28.88 22.5129 28.68 22.4329 28.44C22.3729 28.2 22.3529 27.96 22.3729 27.72C22.3929 27.48 22.4429 27.28 22.5229 27.12C22.5229 26.96 22.5429 26.84 22.5829 26.76C22.6429 26.66 22.6629 26.57 22.6429 26.49C22.6229 26.41 22.6429 26.27 22.7029 26.07C22.7629 25.87 22.8229 25.68 22.8829 25.5C23.0229 25.18 23.1729 24.8 23.3329 24.36C23.4929 23.9 23.6429 23.45 23.7829 23.01C23.9229 22.57 24.0429 22.19 24.1429 21.87C24.2429 21.55 24.3029 21.35 24.3229 21.27C24.3229 21.03 24.4829 20.9 24.8029 20.88C25.0429 20.8 25.2229 20.8 25.3429 20.88C25.4629 20.94 25.6229 21.13 25.8229 21.45C25.9829 21.61 26.0429 21.85 26.0029 22.17C25.9629 22.49 25.8329 22.89 25.6129 23.37C25.5329 23.53 25.4329 23.76 25.3129 24.06C25.2129 24.36 25.1429 24.63 25.1029 24.87C25.0229 25.03 24.9229 25.26 24.8029 25.56C24.7029 25.84 24.6129 26.11 24.5329 26.37C24.4929 26.47 24.4529 26.62 24.4129 26.82C24.3729 27 24.3229 27.2 24.2629 27.42C24.2029 27.62 24.1229 27.8 24.0229 27.96C23.8429 28.78 23.6729 29.26 23.5129 29.4C23.3729 29.54 23.1329 29.42 22.7929 29.04ZM25.7029 16.86C25.6029 16.76 25.5129 16.62 25.4329 16.44C25.3529 16.24 25.3029 16.06 25.2829 15.9C25.2629 15.72 25.2829 15.63 25.3429 15.63C25.5029 15.61 25.6929 15.44 25.9129 15.12C26.1329 14.8 26.2229 14.52 26.1829 14.28C26.1829 14.2 26.2129 14.13 26.2729 14.07C26.3329 13.99 26.4029 13.94 26.4829 13.92C26.7229 13.76 26.9529 13.74 27.1729 13.86C27.4129 13.96 27.6329 14.17 27.8329 14.49C28.0129 14.87 28.0629 15.19 27.9829 15.45C27.9029 15.69 27.6829 16.03 27.3229 16.47C27.0229 16.87 26.7429 17.09 26.4829 17.13C26.2429 17.17 25.9829 17.08 25.7029 16.86ZM30.6086 29.13C30.4486 29.17 30.2386 29.19 29.9786 29.19C29.7186 29.17 29.4886 29.14 29.2886 29.1C29.1086 29.04 29.0186 28.98 29.0186 28.92C29.0186 28.82 28.9686 28.77 28.8686 28.77C28.8686 28.77 28.8186 28.73 28.7186 28.65C28.6386 28.57 28.5086 28.49 28.3286 28.41C28.1486 28.13 28.0586 27.83 28.0586 27.51C28.0586 27.17 28.1486 26.64 28.3286 25.92C28.3886 25.42 28.5786 24.84 28.8986 24.18C29.2386 23.5 29.6486 22.81 30.1286 22.11C30.6086 21.41 31.1086 20.78 31.6286 20.22C32.1686 19.66 32.6586 19.25 33.0986 18.99C33.3786 18.71 33.7186 18.56 34.1186 18.54C34.5186 18.52 34.8986 18.61 35.2586 18.81C35.4586 18.91 35.6586 19.07 35.8586 19.29C36.0586 19.51 36.2486 19.75 36.4286 20.01C36.6086 20.27 36.7586 20.53 36.8786 20.79C36.9386 21.01 36.9686 21.21 36.9686 21.39C36.9886 21.55 36.9886 21.75 36.9686 21.99C36.9686 22.23 36.9386 22.59 36.8786 23.07C36.7786 23.43 36.6886 23.87 36.6086 24.39C36.5486 24.91 36.5186 25.36 36.5186 25.74C36.4786 26.12 36.5186 26.39 36.6386 26.55C36.7786 26.71 36.9786 26.72 37.2386 26.58C37.4786 26.46 37.7086 26.41 37.9286 26.43C38.1486 26.43 38.3186 26.49 38.4386 26.61C38.5786 26.73 38.6486 26.91 38.6486 27.15C38.6486 27.39 38.5286 27.64 38.2886 27.9C38.0686 28.14 37.7886 28.35 37.4486 28.53C37.1286 28.69 36.8186 28.77 36.5186 28.77C36.2986 28.77 36.0886 28.64 35.8886 28.38C35.6886 28.1 35.5086 27.77 35.3486 27.39C35.2086 26.99 35.0786 26.61 34.9586 26.25L34.7786 25.56L33.4886 26.79C33.2286 27.07 32.9686 27.33 32.7086 27.57C32.4686 27.79 32.3186 27.95 32.2586 28.05C32.1586 28.23 31.9686 28.41 31.6886 28.59C31.4286 28.77 31.0686 28.95 30.6086 29.13ZM30.6986 27.36C31.0386 27.16 31.4286 26.87 31.8686 26.49C32.3086 26.09 32.7386 25.66 33.1586 25.2C33.5786 24.72 33.9286 24.28 34.2086 23.88C34.5486 23.42 34.8086 22.99 34.9886 22.59C35.1686 22.19 35.2986 21.81 35.3786 21.45C35.2986 21.23 35.1686 21 34.9886 20.76C34.8086 20.5 34.6486 20.36 34.5086 20.34C34.0686 20.34 33.5986 20.62 33.0986 21.18C32.6186 21.72 32.1486 22.31 31.6886 22.95C31.6086 23.05 31.4986 23.21 31.3586 23.43C31.2186 23.65 31.0786 23.86 30.9386 24.06C30.8186 24.24 30.7386 24.36 30.6986 24.42C30.6386 24.5 30.5186 24.73 30.3386 25.11C30.1786 25.47 30.0186 25.84 29.8586 26.22C29.6986 26.58 29.6186 26.82 29.6186 26.94C29.6186 27.06 29.6286 27.19 29.6486 27.33C29.6886 27.47 29.7886 27.56 29.9486 27.6C30.1086 27.64 30.3586 27.56 30.6986 27.36Z" fill="#F5D2BA"/>
</svg>
